# xmcd
#
# Track frame offsets:
# 150
# 25605
# 43258
# 60044
# 78118
# 88797
# 101952
# 118856
# 133360
# 149050
# 184810
# 198634
# 212374
# 235247
# 250516
# 264737
# 281508
# 309785
#
# Disc length: 4446 seconds
#
# Revision: 0
# Processed by: cddbd v1.5.2PL0 Copyright (c) Steve Scherf et al.
# Submitted via: Axialis_AX_CDPlayer 2.6
#
DISCID=02115c12
DTITLE=Tony Joe White - Swamp Music - The Complete Monument Recordings (Disc
DTITLE=\n3 of 4)
DYEAR=1900
DGENRE=
TTITLE0=Stud Spider
TTITLE1=High Sheriff Of Calhoun Parrish
TTITLE2=Widow Wimberly
TTITLE3=Conjure Woman
TTITLE4=Save Your Sugar For Me
TTITLE5=Hard To Handle
TTITLE6=What Does It Take (To Win Your Love)
TTITLE7=My Friend
TTITLE8=Stockholm Blues
TTITLE9=Boom Boom
TTITLE10=Boom Boom
TTITLE11=Prisoner
TTITLE12=Do You Want My Love
TTITLE13=Gospel Singer
TTITLE14=I Hate To See You Cry
TTITLE15=Dusty Marshmallow
TTITLE16=I Can't Stand It
TTITLE17=Mississippi River
EXTD=www.tonyjoewhite.com
EXTT0=
EXTT1=
EXTT2=
EXTT3=
EXTT4=
EXTT5=
EXTT6=
EXTT7=
EXTT8=
EXTT9=
EXTT10=
EXTT11=
EXTT12=
EXTT13=
EXTT14=
EXTT15=
EXTT16=
EXTT17=
PLAYORDER=
